<?xml version="1.0" encoding="UTF-8" standalone="no"?>
<!DOCTYPE svg PUBLIC "-//W3C//DTD SVG 1.1//EN" "http://www.w3.org/Graphics/SVG/1.1/DTD/svg11.dtd">
<svg width="100%" height="100%" viewBox="0 0 168 40" version="1.1" xmlns="http://www.w3.org/2000/svg" xmlns:xlink="http://www.w3.org/1999/xlink" xml:space="preserve" xmlns:serif="http://www.serif.com/" style="fill-rule:evenodd;clip-rule:evenodd;stroke-linejoin:round;stroke-miterlimit:2;">
    <g transform="matrix(0.904762,0,0,0.904762,5.57143,12.7619)">
        <path d="M48,-2.5C48,-8.295 43.295,-13 37.5,-13L16.5,-13C10.705,-13 6,-8.295 6,-2.5L6,18.5C6,24.295 10.705,29 16.5,29L37.5,29C43.295,29 48,24.295 48,18.5L48,-2.5Z" style="fill:rgb(253,77,77);"/>
    </g>
    <g transform="matrix(1,0,0,1,-6,0)">
        <g transform="matrix(36,0,0,36,26.1056,30.3462)">
            <path d="M0.437,-0.586C0.449,-0.591 0.457,-0.594 0.46,-0.594C0.465,-0.594 0.473,-0.589 0.483,-0.579C0.491,-0.571 0.496,-0.561 0.499,-0.55C0.502,-0.539 0.504,-0.515 0.506,-0.48C0.508,-0.435 0.51,-0.354 0.511,-0.239L0.511,-0.185C0.511,-0.138 0.509,-0.104 0.506,-0.084C0.502,-0.064 0.496,-0.049 0.488,-0.041C0.48,-0.032 0.464,-0.02 0.441,-0.007C0.386,0.024 0.324,0.039 0.254,0.039C0.174,0.039 0.116,0.02 0.08,-0.018C0.065,-0.034 0.057,-0.057 0.056,-0.086C0.055,-0.091 0.055,-0.098 0.055,-0.107C0.055,-0.123 0.063,-0.143 0.078,-0.166C0.09,-0.184 0.106,-0.2 0.125,-0.214C0.144,-0.228 0.16,-0.235 0.173,-0.235C0.184,-0.235 0.193,-0.231 0.201,-0.222C0.209,-0.213 0.213,-0.203 0.213,-0.192C0.213,-0.178 0.201,-0.161 0.177,-0.142C0.153,-0.121 0.141,-0.104 0.141,-0.092C0.141,-0.083 0.149,-0.073 0.165,-0.064C0.182,-0.055 0.208,-0.051 0.244,-0.051C0.276,-0.051 0.308,-0.055 0.34,-0.062C0.371,-0.069 0.394,-0.078 0.407,-0.089C0.414,-0.094 0.418,-0.102 0.42,-0.112C0.421,-0.121 0.422,-0.146 0.422,-0.186L0.422,-0.264C0.421,-0.412 0.42,-0.488 0.42,-0.493C0.42,-0.516 0.42,-0.534 0.421,-0.546C0.421,-0.557 0.422,-0.566 0.425,-0.572C0.427,-0.578 0.428,-0.581 0.429,-0.582C0.429,-0.582 0.432,-0.583 0.437,-0.586Z" style="fill:white;fill-rule:nonzero;"/>
        </g>
    </g>
    <g transform="matrix(1,0,0,1,-8,2)">
        <g transform="matrix(20,0,0,20,75.6537,20.7714)">
            <path d="M0.437,-0.586C0.449,-0.591 0.457,-0.594 0.46,-0.594C0.465,-0.594 0.473,-0.589 0.483,-0.579C0.491,-0.571 0.496,-0.561 0.499,-0.55C0.502,-0.539 0.504,-0.515 0.506,-0.48C0.508,-0.435 0.51,-0.354 0.511,-0.239L0.511,-0.185C0.511,-0.138 0.509,-0.104 0.506,-0.084C0.502,-0.064 0.496,-0.049 0.488,-0.041C0.48,-0.032 0.464,-0.02 0.441,-0.007C0.386,0.024 0.324,0.039 0.254,0.039C0.174,0.039 0.116,0.02 0.08,-0.018C0.065,-0.034 0.057,-0.057 0.056,-0.086C0.055,-0.091 0.055,-0.098 0.055,-0.107C0.055,-0.123 0.063,-0.143 0.078,-0.166C0.09,-0.184 0.106,-0.2 0.125,-0.214C0.144,-0.228 0.16,-0.235 0.173,-0.235C0.184,-0.235 0.193,-0.231 0.201,-0.222C0.209,-0.213 0.213,-0.203 0.213,-0.192C0.213,-0.178 0.201,-0.161 0.177,-0.142C0.153,-0.121 0.141,-0.104 0.141,-0.092C0.141,-0.083 0.149,-0.073 0.165,-0.064C0.182,-0.055 0.208,-0.051 0.244,-0.051C0.276,-0.051 0.308,-0.055 0.34,-0.062C0.371,-0.069 0.394,-0.078 0.407,-0.089C0.414,-0.094 0.418,-0.102 0.42,-0.112C0.421,-0.121 0.422,-0.146 0.422,-0.186L0.422,-0.264C0.421,-0.412 0.42,-0.488 0.42,-0.493C0.42,-0.516 0.42,-0.534 0.421,-0.546C0.421,-0.557 0.422,-0.566 0.425,-0.572C0.427,-0.578 0.428,-0.581 0.429,-0.582C0.429,-0.582 0.432,-0.583 0.437,-0.586Z" style="fill:rgb(253,77,77);fill-rule:nonzero;"/>
        </g>
        <g transform="matrix(20,0,0,20,86.9137,20.7714)">
            <path d="M0.386,-0.508C0.382,-0.557 0.365,-0.581 0.335,-0.581C0.306,-0.581 0.272,-0.56 0.235,-0.517C0.217,-0.497 0.204,-0.48 0.196,-0.465C0.187,-0.45 0.179,-0.43 0.172,-0.406C0.166,-0.385 0.163,-0.372 0.163,-0.367C0.163,-0.364 0.164,-0.363 0.165,-0.363L0.169,-0.365C0.174,-0.368 0.196,-0.371 0.235,-0.376C0.302,-0.384 0.347,-0.406 0.371,-0.441C0.382,-0.456 0.387,-0.472 0.387,-0.489L0.386,-0.508ZM0.304,-0.667C0.313,-0.67 0.323,-0.671 0.334,-0.671C0.373,-0.671 0.407,-0.655 0.435,-0.622C0.462,-0.589 0.476,-0.549 0.476,-0.501C0.476,-0.448 0.459,-0.404 0.424,-0.367C0.389,-0.33 0.341,-0.305 0.279,-0.292C0.244,-0.285 0.221,-0.282 0.208,-0.282C0.189,-0.282 0.175,-0.287 0.164,-0.296C0.157,-0.303 0.153,-0.306 0.151,-0.306C0.149,-0.306 0.147,-0.3 0.145,-0.288C0.142,-0.275 0.141,-0.258 0.141,-0.235C0.141,-0.198 0.144,-0.166 0.151,-0.138C0.166,-0.079 0.203,-0.027 0.26,0.018C0.317,0.063 0.374,0.086 0.43,0.086C0.442,0.086 0.451,0.085 0.457,0.084C0.512,0.075 0.556,0.038 0.589,-0.027C0.601,-0.051 0.615,-0.063 0.632,-0.063C0.641,-0.063 0.65,-0.06 0.659,-0.054C0.67,-0.047 0.676,-0.036 0.676,-0.023C0.676,-0.01 0.671,0.008 0.66,0.029C0.639,0.07 0.611,0.103 0.575,0.129C0.538,0.154 0.498,0.169 0.455,0.173C0.45,0.174 0.441,0.174 0.43,0.174C0.354,0.174 0.28,0.146 0.209,0.091C0.138,0.036 0.09,-0.031 0.066,-0.11C0.058,-0.139 0.054,-0.166 0.054,-0.191C0.054,-0.197 0.055,-0.215 0.056,-0.244C0.063,-0.398 0.106,-0.514 0.185,-0.592C0.226,-0.633 0.265,-0.658 0.304,-0.667Z" style="fill:rgb(253,77,77);fill-rule:nonzero;"/>
        </g>
        <g transform="matrix(20,0,0,20,101.554,20.7714)">
            <path d="M0.251,-0.485C0.251,-0.506 0.254,-0.522 0.26,-0.531C0.266,-0.54 0.277,-0.545 0.294,-0.545C0.311,-0.545 0.322,-0.539 0.328,-0.526C0.334,-0.513 0.337,-0.488 0.337,-0.451L0.337,-0.389L0.401,-0.384C0.451,-0.38 0.509,-0.373 0.576,-0.364C0.643,-0.354 0.681,-0.347 0.69,-0.342C0.704,-0.335 0.711,-0.324 0.711,-0.308C0.711,-0.299 0.708,-0.29 0.702,-0.281C0.695,-0.27 0.686,-0.264 0.673,-0.264C0.67,-0.264 0.66,-0.265 0.641,-0.266C0.624,-0.268 0.582,-0.273 0.517,-0.281C0.452,-0.288 0.407,-0.293 0.384,-0.296L0.332,-0.301L0.327,-0.261C0.324,-0.238 0.322,-0.202 0.322,-0.154C0.322,-0.085 0.325,-0.04 0.331,-0.019C0.337,0.002 0.346,0.021 0.357,0.039C0.368,0.056 0.373,0.07 0.373,0.08C0.373,0.089 0.369,0.098 0.361,0.106C0.353,0.115 0.344,0.12 0.334,0.12C0.319,0.12 0.304,0.111 0.289,0.094C0.274,0.076 0.261,0.051 0.25,0.02C0.239,-0.011 0.234,-0.053 0.234,-0.105L0.234,-0.141C0.235,-0.224 0.237,-0.271 0.239,-0.281L0.244,-0.307L0.166,-0.307C0.12,-0.307 0.09,-0.31 0.077,-0.316C0.063,-0.321 0.056,-0.334 0.056,-0.353C0.056,-0.371 0.061,-0.383 0.071,-0.388C0.081,-0.393 0.104,-0.395 0.141,-0.395L0.16,-0.395L0.241,-0.393L0.247,-0.421C0.25,-0.441 0.251,-0.462 0.251,-0.485Z" style="fill:rgb(253,77,77);fill-rule:nonzero;"/>
        </g>
        <g transform="matrix(20,0,0,20,116.874,20.7714)">
            <path d="M0.311,-0.206C0.296,-0.215 0.281,-0.22 0.264,-0.22C0.241,-0.22 0.221,-0.212 0.204,-0.195C0.187,-0.178 0.175,-0.154 0.169,-0.125C0.165,-0.104 0.161,-0.07 0.157,-0.021C0.156,0.002 0.155,0.015 0.155,0.02C0.155,0.033 0.157,0.042 0.161,0.047C0.165,0.052 0.172,0.054 0.183,0.054C0.191,0.054 0.207,0.052 0.23,0.049C0.279,0.042 0.311,0.029 0.327,0.012C0.343,-0.005 0.352,-0.038 0.355,-0.087C0.356,-0.093 0.356,-0.102 0.356,-0.113C0.356,-0.138 0.353,-0.158 0.346,-0.172C0.339,-0.185 0.328,-0.197 0.311,-0.206ZM0.199,-0.296C0.216,-0.303 0.236,-0.307 0.261,-0.307C0.291,-0.307 0.317,-0.302 0.338,-0.292C0.356,-0.283 0.374,-0.269 0.393,-0.25C0.412,-0.231 0.425,-0.211 0.434,-0.192C0.442,-0.174 0.446,-0.148 0.446,-0.113C0.446,-0.074 0.441,-0.036 0.43,-0C0.417,0.045 0.393,0.078 0.36,0.1C0.327,0.121 0.279,0.134 0.218,0.138L0.155,0.142L0.151,0.168C0.148,0.187 0.147,0.217 0.147,0.259C0.147,0.294 0.145,0.329 0.142,0.362L0.137,0.4L0.053,0.4L0.053,0.203C0.054,0.063 0.058,-0.041 0.063,-0.11C0.068,-0.174 0.074,-0.215 0.081,-0.232C0.087,-0.249 0.099,-0.257 0.118,-0.257C0.131,-0.257 0.144,-0.262 0.156,-0.271C0.166,-0.279 0.18,-0.287 0.199,-0.296Z" style="fill:rgb(253,77,77);fill-rule:nonzero;"/>
        </g>
        <g transform="matrix(20,0,0,20,126.814,20.7714)">
            <path d="M0.52,-0.6C0.5,-0.606 0.481,-0.609 0.462,-0.609C0.438,-0.609 0.42,-0.604 0.407,-0.595C0.395,-0.584 0.376,-0.574 0.35,-0.563C0.323,-0.551 0.296,-0.53 0.267,-0.5C0.238,-0.471 0.219,-0.456 0.211,-0.456C0.196,-0.456 0.18,-0.433 0.165,-0.388C0.149,-0.342 0.141,-0.297 0.141,-0.253L0.141,-0.238C0.148,-0.127 0.21,-0.072 0.328,-0.072C0.385,-0.072 0.439,-0.087 0.491,-0.117C0.543,-0.146 0.58,-0.184 0.603,-0.23C0.61,-0.243 0.615,-0.259 0.617,-0.277C0.618,-0.294 0.619,-0.332 0.619,-0.391L0.619,-0.524L0.584,-0.558C0.561,-0.581 0.539,-0.595 0.52,-0.6ZM0.365,-0.679C0.394,-0.69 0.425,-0.696 0.459,-0.696C0.52,-0.696 0.571,-0.681 0.61,-0.652C0.631,-0.637 0.648,-0.63 0.662,-0.63C0.676,-0.63 0.686,-0.626 0.692,-0.617C0.698,-0.608 0.703,-0.592 0.706,-0.569C0.708,-0.547 0.714,-0.52 0.723,-0.489C0.73,-0.464 0.734,-0.433 0.734,-0.395C0.734,-0.358 0.73,-0.325 0.723,-0.298C0.716,-0.272 0.713,-0.238 0.713,-0.197L0.714,-0.151C0.715,-0.098 0.718,-0.065 0.723,-0.051C0.727,-0.037 0.738,-0.03 0.756,-0.03C0.76,-0.03 0.77,-0.031 0.786,-0.032C0.807,-0.033 0.819,-0.034 0.82,-0.034C0.832,-0.034 0.841,-0.028 0.848,-0.017C0.854,-0.007 0.857,0.002 0.857,0.01C0.857,0.041 0.822,0.057 0.752,0.058L0.749,0.058C0.678,0.058 0.638,0.017 0.628,-0.064C0.625,-0.089 0.623,-0.101 0.62,-0.101C0.618,-0.101 0.608,-0.092 0.589,-0.075C0.571,-0.058 0.55,-0.044 0.527,-0.033C0.458,0.002 0.391,0.019 0.324,0.019C0.269,0.019 0.221,0.007 0.178,-0.017C0.134,-0.041 0.102,-0.075 0.08,-0.12C0.069,-0.141 0.063,-0.159 0.06,-0.172C0.057,-0.185 0.055,-0.209 0.054,-0.242L0.054,-0.259C0.054,-0.372 0.085,-0.463 0.148,-0.532C0.167,-0.552 0.2,-0.578 0.249,-0.611C0.297,-0.644 0.336,-0.666 0.365,-0.679Z" style="fill:rgb(253,77,77);fill-rule:nonzero;"/>
        </g>
        <g transform="matrix(20,0,0,20,145.094,20.7714)">
            <path d="M0.259,-0.459C0.29,-0.466 0.312,-0.469 0.325,-0.469C0.336,-0.469 0.346,-0.465 0.355,-0.456C0.364,-0.447 0.369,-0.436 0.369,-0.424C0.369,-0.413 0.365,-0.403 0.356,-0.395C0.349,-0.388 0.326,-0.381 0.286,-0.373C0.248,-0.366 0.219,-0.356 0.198,-0.343C0.177,-0.33 0.162,-0.313 0.152,-0.292C0.144,-0.275 0.14,-0.257 0.14,-0.239C0.14,-0.193 0.162,-0.147 0.206,-0.102C0.251,-0.055 0.298,-0.032 0.349,-0.032C0.38,-0.032 0.408,-0.042 0.435,-0.061C0.451,-0.073 0.467,-0.079 0.482,-0.079C0.494,-0.079 0.504,-0.076 0.512,-0.069C0.519,-0.062 0.523,-0.053 0.523,-0.042C0.523,-0.025 0.513,-0.008 0.493,0.008C0.45,0.041 0.402,0.058 0.349,0.058C0.31,0.058 0.272,0.049 0.235,0.031C0.204,0.016 0.174,-0.006 0.145,-0.036C0.116,-0.066 0.093,-0.097 0.078,-0.128C0.067,-0.149 0.061,-0.166 0.058,-0.179C0.055,-0.192 0.054,-0.211 0.054,-0.238C0.054,-0.265 0.055,-0.284 0.057,-0.296C0.059,-0.308 0.064,-0.321 0.071,-0.334C0.104,-0.399 0.167,-0.441 0.259,-0.459Z" style="fill:rgb(253,77,77);fill-rule:nonzero;"/>
        </g>
        <g transform="matrix(20,0,0,20,156.634,20.7714)">
            <path d="M0.292,-0.346C0.283,-0.353 0.271,-0.356 0.258,-0.356C0.245,-0.356 0.23,-0.353 0.214,-0.346C0.2,-0.34 0.191,-0.332 0.186,-0.322C0.181,-0.311 0.178,-0.294 0.178,-0.271C0.178,-0.266 0.178,-0.262 0.179,-0.261C0.179,-0.259 0.18,-0.257 0.181,-0.256C0.182,-0.255 0.185,-0.254 0.188,-0.254C0.193,-0.254 0.201,-0.255 0.213,-0.257C0.234,-0.261 0.255,-0.27 0.276,-0.284C0.297,-0.297 0.307,-0.31 0.307,-0.321C0.307,-0.331 0.302,-0.339 0.292,-0.346ZM0.12,-0.698C0.131,-0.707 0.139,-0.711 0.146,-0.711C0.153,-0.711 0.161,-0.707 0.172,-0.698C0.181,-0.691 0.186,-0.682 0.187,-0.67C0.188,-0.658 0.19,-0.622 0.191,-0.562L0.194,-0.441L0.254,-0.441C0.282,-0.441 0.301,-0.44 0.31,-0.438C0.319,-0.435 0.331,-0.429 0.345,-0.419C0.381,-0.394 0.399,-0.363 0.399,-0.325C0.399,-0.316 0.398,-0.308 0.396,-0.3C0.383,-0.26 0.352,-0.226 0.303,-0.198C0.278,-0.183 0.265,-0.174 0.265,-0.171C0.265,-0.167 0.293,-0.134 0.35,-0.073C0.436,0.022 0.484,0.076 0.493,0.09C0.5,0.101 0.504,0.109 0.504,0.116C0.504,0.122 0.499,0.13 0.489,0.14C0.479,0.15 0.47,0.155 0.463,0.155C0.454,0.155 0.441,0.148 0.425,0.135C0.409,0.121 0.384,0.096 0.35,0.059C0.285,-0.011 0.24,-0.062 0.215,-0.093C0.185,-0.13 0.167,-0.148 0.161,-0.148C0.158,-0.148 0.157,-0.146 0.157,-0.141C0.157,-0.14 0.154,-0.114 0.149,-0.063C0.144,-0.021 0.139,0.007 0.132,0.02C0.125,0.033 0.113,0.039 0.096,0.039C0.081,0.039 0.07,0.035 0.064,0.028C0.057,0.021 0.054,0.006 0.054,-0.016C0.054,-0.045 0.062,-0.107 0.077,-0.203C0.088,-0.27 0.094,-0.321 0.097,-0.355C0.1,-0.389 0.101,-0.444 0.102,-0.519C0.103,-0.601 0.104,-0.65 0.105,-0.665C0.106,-0.68 0.111,-0.691 0.12,-0.698Z" style="fill:rgb(253,77,77);fill-rule:nonzero;"/>
        </g>
    </g>
</svg>
